<svg id="Layer_1" data-name="Layer 1" xmlns="http://www.w3.org/2000/svg" width="24" height="24" viewBox="0 0 24 24"><defs><style>.cls-1{fill:#847a7a;}</style></defs><title>info</title><path class="cls-1" d="M12,0A12,12,0,1,0,24,12,12.0005,12.0005,0,0,0,12,0ZM9.967,16.01c.564-1.789,1.632-3.932,1.821-4.474.273-.787-.211-1.136-1.74.209l-.34-.64c1.744-1.897,5.335-2.326,4.113.613-.763,1.835-1.309,3.074-1.621,4.03-.455,1.393.694.828,1.819-.211.153.25.203.331.356.619C11.877,18.534,9.104,18.744,9.967,16.01Zm4.742-8.169a1.2963,1.2963,0,0,1-1.761-.022,1.14,1.14,0,0,1,.164-1.661,1.2973,1.2973,0,0,1,1.761.022A1.141,1.141,0,0,1,14.709,7.841Z"/></svg>